<?xml version="1.0" encoding="UTF-8"?>
<!DOCTYPE svg PUBLIC "-//W3C//DTD SVG 1.1//EN" "http://www.w3.org/Graphics/SVG/1.1/DTD/svg11.dtd">
<svg version="1.1" xmlns="http://www.w3.org/2000/svg" xmlns:xlink="http://www.w3.org/1999/xlink" x="0" y="0" width="40" height="40" viewBox="0, 0, 40, 40">
  <g id="Layer_1">
    <path d="M22.326,3.316 C24.199,6.32 27.594,8.189 31.37,8.189 C32.189,8.189 32.996,8.1 33.784,7.924 L35.965,10.654 C32.952,13.582 31.155,18.119 31.155,23.072 C31.155,26.571 32.078,29.944 33.739,32.668 L30.672,34.719 C29.279,33.976 27.61,33.568 25.882,33.568 C23.686,33.568 21.642,34.219 20.109,35.334 C18.577,34.219 16.532,33.568 14.336,33.568 C12.609,33.568 10.94,33.977 9.545,34.719 L6.478,32.668 C8.139,29.944 9.062,26.571 9.062,23.072 C9.062,18.12 7.265,13.582 4.253,10.654 L6.435,7.924 C7.223,8.1 8.03,8.189 8.849,8.189 C12.624,8.189 16.019,6.32 17.892,3.316 L20.109,3.316 L22.326,3.316 M23.728,1 L20.109,1 L16.489,1 C15.298,3.85 12.332,5.873 8.849,5.873 C7.695,5.873 6.601,5.648 5.608,5.248 L1,11.015 C4.399,13.172 6.746,17.758 6.746,23.071 C6.746,27.149 5.363,30.797 3.183,33.251 L9.546,37.505 C10.678,36.517 12.402,35.884 14.336,35.884 C16.981,35.884 19.231,37.067 20.109,38.726 C20.987,37.067 23.237,35.884 25.882,35.884 C27.815,35.884 29.541,36.517 30.671,37.505 L37.033,33.251 C34.855,30.797 33.471,27.148 33.471,23.071 C33.471,17.757 35.819,13.171 39.217,11.015 L34.61,5.248 C33.617,5.648 32.523,5.873 31.369,5.873 C27.885,5.873 24.92,3.85 23.728,1 L23.728,1 z" fill="#FFFFFF"/>
  </g>
</svg>
