<?xml version="1.0" encoding="UTF-8"?>
<!DOCTYPE svg PUBLIC "-//W3C//DTD SVG 1.1//EN" "http://www.w3.org/Graphics/SVG/1.1/DTD/svg11.dtd">
<svg version="1.1" xmlns="http://www.w3.org/2000/svg" xmlns:xlink="http://www.w3.org/1999/xlink" x="0" y="0" width="348" height="348" viewBox="0, 0, 348, 348">
  <g id="Layer_1">
    <path d="M174,348 C78.1,348 0,270 0,174 C0,78 78,0 174,0 C270,0 348,78.1 348,174 C348,269.9 269.9,348 174,348 z M174,25.8 C92.3,25.8 25.8,92.3 25.8,174 C25.8,255.7 92.3,322.2 174,322.2 C255.7,322.2 322.2,255.7 322.2,174 C322.2,92.3 255.7,25.8 174,25.8 z" fill="#FFFFFF"/>
    <path d="M90.6,95.7 L257.3,95.7 L257.3,138.7 L194.4,138.7 L194.4,285.4 L153.5,285.4 L153.5,140.8 L90.6,140.8 z" fill="#FFFFFF"/>
    <path d="M-433.861,136.747 C-436.195,144.612 -440.217,149.499 -444.357,149.499 C-451.294,149.499 -456.94,136.863 -456.94,121.332 C-456.94,120.441 -456.911,119.524 -456.87,118.599 L-452.456,120.876 C-452.087,121.065 -451.635,120.921 -451.445,120.553 C-451.389,120.443 -451.363,120.325 -451.363,120.21 C-451.363,119.938 -451.51,119.676 -451.768,119.542 L-457.22,116.73 C-457.221,116.729 -457.225,116.729 -457.227,116.728 C-457.27,116.706 -457.323,116.701 -457.371,116.688 C-457.389,116.683 -457.406,116.676 -457.424,116.672 C-457.424,116.672 -457.427,116.672 -457.428,116.672 C-457.458,116.666 -457.484,116.65 -457.516,116.648 C-457.557,116.645 -457.592,116.661 -457.631,116.664 C-457.654,116.667 -457.678,116.668 -457.702,116.673 C-457.704,116.674 -457.708,116.675 -457.711,116.676 C-457.762,116.687 -457.811,116.697 -457.858,116.717 C-457.875,116.722 -457.891,116.723 -457.906,116.731 L-463.358,119.543 C-463.725,119.733 -463.872,120.183 -463.681,120.554 C-463.491,120.922 -463.039,121.067 -462.671,120.877 L-458.372,118.66 C-458.411,119.564 -458.438,120.461 -458.438,121.333 C-458.438,137.969 -452.251,151 -444.355,151 C-439.452,151 -434.991,145.832 -432.421,137.175 C-432.4,137.104 -432.389,137.032 -432.389,136.961 C-432.389,136.638 -432.6,136.34 -432.926,136.243 C-433.326,136.124 -433.743,136.351 -433.861,136.747 z M-456.29,105.49 C-456.411,105.89 -456.182,106.305 -455.786,106.423 C-455.389,106.541 -454.971,106.315 -454.854,105.918 C-452.518,98.052 -448.497,93.166 -444.357,93.166 C-437.419,93.166 -431.773,105.801 -431.773,121.332 C-431.773,122.227 -431.802,123.144 -431.842,124.066 L-436.257,121.789 C-436.625,121.6 -437.077,121.744 -437.268,122.112 C-437.457,122.478 -437.312,122.931 -436.945,123.122 L-431.493,125.934 C-431.493,125.935 -431.492,125.934 -431.492,125.935 C-431.462,125.95 -431.426,125.952 -431.393,125.962 C-431.359,125.974 -431.325,125.985 -431.288,125.992 C-431.285,125.993 -431.281,125.993 -431.279,125.993 C-431.251,125.999 -431.225,126.014 -431.197,126.015 C-431.165,126.017 -431.138,126.005 -431.108,126.003 C-431.076,126 -431.044,125.997 -431.012,125.991 C-431.007,125.99 -431.003,125.988 -430.997,125.987 C-430.948,125.977 -430.9,125.966 -430.854,125.946 C-430.837,125.942 -430.82,125.94 -430.805,125.932 L-425.353,123.12 C-425.095,122.987 -424.947,122.724 -424.947,122.453 C-424.947,122.338 -424.973,122.22 -425.03,122.11 C-425.22,121.742 -425.673,121.597 -426.04,121.787 L-430.339,124.005 C-430.299,123.103 -430.273,122.206 -430.273,121.33 C-430.273,104.695 -436.46,91.664 -444.357,91.664 C-449.26,91.666 -453.721,96.834 -456.29,105.49 z" fill="#000000" id="rotate2"/>
  </g>
</svg>
